<?xml version="1.0" encoding="iso-8859-1"?>
<!-- Generator: Adobe Illustrator 19.0.0, SVG Export Plug-In . SVG Version: 6.00 Build 0)  -->
<svg version="1.1" id="Capa_1" xmlns="http://www.w3.org/2000/svg" xmlns:xlink="http://www.w3.org/1999/xlink" x="0px" y="0px"
	 viewBox="0 0 512 512" style="enable-background:new 0 0 512 512;" xml:space="preserve">
<path style="fill:#FF5A5F;" d="M410,270V51.495C471.948,98.219,512,172.429,512,256c0,58.622-19.717,112.628-52.867,155.779
	c-2.965,3.859-9.133,1.782-9.133-3.085V270H410z"/>
<path style="fill:#E1EBF0;" d="M425.636,5v59.293V105v224.428c0,2.761-2.239,5-5,5H12.257C4.309,309.71,0,283.36,0,256
	C0,114.997,113.999,0.632,254.856,0.014C254.905,0.013,254.951,0,255,0h165.636C423.398,0,425.636,2.239,425.636,5z"/>
<g>
	<path style="fill:#91B9FF;" d="M395.234,41.155v257.871c0,2.761-2.239,5-5,5H4.518C1.564,288.468,0,272.418,0,256
		C0,158.42,54.602,73.6,134.914,30.403h242.172C383.294,33.742,389.346,37.332,395.234,41.155z"/>
	<path style="fill:#91B9FF;" d="M390.234,190H335c-2.761,0-5-2.239-5-5V35.403c0-2.761,2.239-5,5-5h55.234c2.761,0,5,2.239,5,5V185
		C395.234,187.761,392.995,190,390.234,190z"/>
</g>
<path style="fill:#FFF091;" d="M326.828,45.604c29.384,0,53.205,23.82,53.205,53.205s-23.82,53.205-53.205,53.205
	c-29.384,0-53.205-23.82-53.205-53.205S297.444,45.604,326.828,45.604z"/>
<path style="fill:#B9DCFF;" d="M117.381,96.678c-0.6-9.266,6.738-16.968,15.875-16.968h79.545c8.786,0,15.909,7.123,15.909,15.909
	l0,0c0,8.786,7.123,15.909,15.909,15.909h63.636c9.137,0,16.475,7.702,15.875,16.968c-0.548,8.456-7.946,14.85-16.42,14.85H180.983
	c-8.786,0-15.909-7.123-15.909-15.909l0,0c0-8.786-7.123-15.909-15.909-15.909H133.8
	C125.327,111.528,117.928,105.134,117.381,96.678z"/>
<path style="fill:#1E9682;" d="M363.775,308.205H25c-0.254,0-3.999-0.019-9.435-0.056c-6.05-0.041-11.194-4.436-12.174-10.406
	C1.162,284.159,0,270.216,0,256c0-20.421,2.405-40.278,6.922-59.318L119.374,84.23c5.641-5.641,14.786-5.641,20.427,0
	L363.775,308.205z"/>
<path style="fill:#147D73;" d="M198.394,269.662H183.03c-8.786,0-15.909,7.123-15.909,15.909l0,0
	c0,8.786-7.123,15.909-15.909,15.909h-94.91c-8.473,0-15.872-6.394-16.42-14.85c-0.6-9.266,6.738-16.968,15.875-16.968h31.818
	c8.786,0,15.909-7.123,15.909-15.909l0,0c0-8.786,7.123-15.909,15.909-15.909h79.545c9.137,0,16.475,7.702,15.875,16.968
	C214.267,263.268,206.868,269.662,198.394,269.662z"/>
<path style="fill:#5AC3A5;" d="M237.025,164.77c5.641-5.641,14.786-5.641,20.427,0l117.38,117.38v14.275
	c0,4.198-3.403,7.601-7.601,7.601H97.769L237.025,164.77z"/>
<path style="fill:#E6FAFF;" d="M139.8,84.23l40.891,40.891c-3.454,1.032-7.11,1.595-10.9,1.595c-6.93,0-13.407-1.885-19.002-5.126
	c-5.594,3.241-12.071,5.126-19.002,5.126c-6.93,0-13.407-1.885-19.002-5.126c-5.594,3.241-12.071,5.126-19.002,5.126
	c-5.007,0-9.783-0.978-14.16-2.737l39.749-39.749C125.015,78.59,134.16,78.59,139.8,84.23z M257.451,164.771
	c-5.641-5.641-14.786-5.641-20.427,0L196.995,204.8c4.443,1.821,9.303,2.833,14.402,2.833c6.93,0,13.407-1.885,19.002-5.126
	c5.594,3.241,12.071,5.126,19.002,5.126c6.93,0,13.407-1.885,19.002-5.126c5.594,3.241,12.071,5.126,19.002,5.126
	c3.907,0,7.675-0.591,11.223-1.686L257.451,164.771z"/>
<path style="fill:#F5DA73;" d="M256,512C128.549,512,22.867,418.857,3.272,296.931H250l20.996-25.846
	c5.697-7.013,14.25-11.084,23.285-11.084H445c8.284,0,15,6.716,15,15v135.658C413.248,472.23,339.273,512,256,512z"/>
<g>
</g>
<g>
</g>
<g>
</g>
<g>
</g>
<g>
</g>
<g>
</g>
<g>
</g>
<g>
</g>
<g>
</g>
<g>
</g>
<g>
</g>
<g>
</g>
<g>
</g>
<g>
</g>
<g>
</g>
</svg>
